# xmcd CD database file
#
# Track frame offsets:
#	150
#	16297
#	34192
#	50310
#
# Disc length: 906 seconds
#
# Revision: 0
# Processed by: cddbd v1.5PL3 Copyright (c) Steve Scherf et al.
# Submitted via: CDex 1.50beta10
#
DISCID=27038804
DTITLE=わがままフェアリー ミルモでポン！ ハッピー・ラッキー 〜お願いミルモ〜 - kaede-chan
DYEAR=2003
DGENRE=Anime
TTITLE0=ハッピー・ラッキー 〜お願いミルモ〜
TTITLE1=13色目のFairy
TTITLE2=ハッピー・ラッキー 〜お願いミルモ〜 (カラオケ)
TTITLE3=13色目のFairy (カラオケ)
EXTD=YEAR: 2003
EXTT0=
EXTT1=
EXTT2=
EXTT3=
PLAYORDER=
